<?xml version="1.0" encoding="UTF-8" standalone="no"?>
<svg width="663px" height="619px" viewBox="0 0 663 619" version="1.1" xmlns="http://www.w3.org/2000/svg" xmlns:xlink="http://www.w3.org/1999/xlink">
    <!-- Generator: Sketch 3.6 (26304) - http://www.bohemiancoding.com/sketch -->
    <title>Cup Logo Outline</title>
    <desc>Created with Sketch.</desc>
    <defs>
        <linearGradient x1="13.9530937%" y1="81.9724979%" x2="105.199935%" y2="43.3512822%" id="linearGradient-1">
            <stop stop-color="#EBDC19" offset="0%"></stop>
            <stop stop-color="#F5EC59" offset="100%"></stop>
        </linearGradient>
        <linearGradient x1="0%" y1="43.3512837%" x2="100%" y2="43.3512837%" id="linearGradient-2">
            <stop stop-color="#EBDC19" stop-opacity="0" offset="0%"></stop>
            <stop stop-color="#F7F193" offset="100%"></stop>
        </linearGradient>
    </defs>
    <g id="Page-1" stroke="none" stroke-width="1" fill="none" fill-rule="evenodd">
        <g id="Cup-Logo-Outline">
            <path d="M660.075,16.276 C656.355,6.177 648.15,2.934 641.677,3.289 C631.105,3.854 621.364,3.643 611.944,3.439 C587.46,2.91 566.309,2.45 550.853,17.576 C538.958,29.217 533.653,47.131 533.653,75.663 L567.164,75.663 C567.164,53.214 571.04,44.708 574.29,41.526 C579.673,36.26 594.29,36.577 611.22,36.942 C616.828,37.064 622.875,37.199 629.294,37.154 C629.462,54.403 626.235,91.675 611.043,138.508 C595.213,187.306 562.82,255.811 498.4,305.058 L518.753,331.681 C590.955,276.484 626.609,200.287 643.805,146.084 C661.544,90.168 666.539,33.821 660.075,16.276" id="Fill-1" fill="#F5EC59"></path>
            <path d="M435.465,552.578 C435.456,534.322 436.007,521.545 436.371,513.09 C437.012,498.183 437.306,491.379 430.351,486.834 C426.841,484.539 417.656,478.529 364.353,461.176 C364.982,460.06 365.788,459.423 366.392,458.948 C369.986,456.112 376.676,450.831 375.361,442.035 C373.985,432.842 364.9,427.568 350.689,422.038 L350.689,411.712 C439.46,395.485 508.544,269.567 508.544,116.616 C508.544,87.677 506.072,59.707 501.46,33.263 L161,33.263 C156.389,59.707 153.917,87.677 153.917,116.616 C153.917,269.568 223.001,395.486 311.772,411.712 L311.772,422.038 C297.561,427.568 288.477,432.842 287.101,442.035 C285.785,450.831 292.475,456.112 296.07,458.948 C296.673,459.423 297.479,460.06 298.068,460.579 C244.81,478.525 235.616,484.54 232.056,486.869 C225.156,491.379 225.449,498.183 226.09,513.09 C226.455,521.545 227.006,534.322 226.997,552.578 C226.996,554.625 224.187,558.776 216.272,563.735 C204.744,570.959 200.737,584.166 205.28,599.969 C210.75,619 218.3,619 221.142,619 L441.318,619 C444.161,619 451.711,619 457.182,599.967 C461.723,584.165 457.716,570.959 446.189,563.735 C438.275,558.776 435.466,554.625 435.465,552.578 Z" id="Fill-3" fill="url(#linearGradient-1)"></path>
            <path d="M337.772,410.110686 C426.543,393.883686 495.627,267.965686 495.627,115.014686 C495.627,86.0756855 493.155,58.1056855 488.543,31.6616855 L148.083,31.6616855 C143.472,58.1056855 141,86.0756855 141,115.014686 C141,267.966686 210.084,393.884686 298.855,410.110686 L337.772,410.110686 Z" id="Fill-3-Copy-3" fill="url(#linearGradient-2)"></path>
            <path d="M426.532836,554.296867 C426.524248,536.877322 427.050002,524.685739 427.397324,516.618131 C428.008955,502.394141 428.289484,495.901887 421.653149,491.56513 C418.303971,489.375282 409.53981,483.640649 358.67905,467.08273 C359.27923,466.017863 360.048301,465.410049 360.624627,464.956813 C364.053957,462.250753 370.437434,457.211718 369.182685,448.818734 C367.86973,440.046939 359.200987,435.014584 345.641108,429.737957 L345.641108,419.885075 C345.641109,428.823083 338.695313,441.242188 353.808593,448.818733 C362.749217,453.300821 346.331814,444.616757 345.641108,464.956814 C344.950402,485.296871 361.661914,491.56502 360.64111,491.565127 C345.641108,491.566693 397.683757,502.394139 398.295388,516.618129 C398.643664,524.685737 406.303976,525.894384 406.295388,543.31393 C406.294434,545.26714 447.254805,609.533741 383.859374,609.558598 C361.039716,609.567545 442.034475,617.675539 447.254805,599.514594 C451.587745,584.436612 447.764338,571.835685 436.765483,564.942675 C429.214087,560.210887 426.53379,556.250077 426.532836,554.296867 Z" id="Fill-3-Copy-2" fill="#FFFFFF" opacity="0.352320429"></path>
            <path d="M350.850226,396 C433.319268,380.780765 497.498914,267.62853 497.498914,124.176429 C497.498914,97.0346624 501.78351,95.2235917 497.498922,70.421875 C497.498922,70.421875 508.481764,161.490608 432.937499,282.273438 C349.042826,416.407192 350.850226,396 350.850226,396 Z" id="Fill-3-Copy" fill="#FFFFFF" opacity="0.354186101"></path>
            <path d="M51.739,135.344 C36.547,88.512 33.32,51.239 33.488,33.991 C39.914,34.026 45.957,33.899 51.562,33.778 C68.492,33.415 83.108,33.096 88.491,38.363 C91.742,41.545 95.618,50.05 95.618,72.5 L129.128,72.5 C129.128,43.968 123.823,26.054 111.929,14.413 C96.473,-0.712 75.317,-0.248 50.838,0.275 C41.415,0.479 31.675,0.689 21.104,0.126 C14.637,-0.225 6.428,3.014 2.707,13.112 C-3.758,30.657 1.237,87.004 18.977,142.921 C36.172,197.122 71.827,273.32 144.029,328.517 L164.382,301.894 C99.961,252.648 67.569,184.141 51.739,135.344" id="Fill-4" fill="#F5EC59"></path>
        </g>
    </g>
</svg>